# xmcd
#
# Track frame offsets:
#	150
#	17455
#	43328
#	64933
#	102368
#	133005
#	149768
#	161381
#	181563
#	226283
#
# Disc length: 3344 seconds
# Revision: 0
# Processed by: cddbd v1.5.2PL0 Copyright (c) Steve Scherf et al.
# Submitted via: dBpowerAMP V12.0
#
DISCID=840d0e0a
DTITLE=Lazy Eye - House Of Trouble
DYEAR=2000
DGENRE=Blues
TTITLE0=Black Hill
TTITLE1=Hole In My Pocket
TTITLE2=Close
TTITLE3=Two Time Fool
TTITLE4=Howl
TTITLE5=Loaded Gun
TTITLE6=Out My Head
TTITLE7=Honey Bee Blues
TTITLE8=House Of Trouble
TTITLE9=Up and Rise
EXTD=
EXTT0=
EXTT1=
EXTT2=
EXTT3=
EXTT4=
EXTT5=
EXTT6=
EXTT7=
EXTT8=
EXTT9=
PLAYORDER=
